<svg width="64" height="64" viewBox="0 0 64 64" fill="none" xmlns="http://www.w3.org/2000/svg">
  <!-- Hanger Icon -->
  <path d="M32 6a2 2 0 0 0-2 2v3c0 1.2.6 2.2 1.6 2.8l2.4 1.3-4.2 4.2a2 2 0 1 0 2.8 2.8l5.2-5.2a2 2 0 0 0-.4-3.2l-3.4-1.9V8a2 2 0 0 0-2-2zm-2 22L4 44.5c-.8.5-1 1.5-.6 2.3a2 2 0 0 0 2.6.8L32 34l26 13.6a2 2 0 0 0 2.6-.8c.4-.8.2-1.8-.6-2.3L34 28a2 2 0 0 0-2 0z" fill="#0d9488"/>
  
  <!-- ReWear Text -->
  <g font-family="Arial, sans-serif" font-weight="600" font-size="10" fill="#0f766e">
    <text x="32" y="58" text-anchor="middle">ReWear</text>
  </g>
</svg>
